name D:\PhD\Datasets\SharingData_IBEC_VALDUCE\HM_Healthy_0001.mot
datacolumns 46
datarows 8
range 2.51000000 2.58000000
endheader
                time	         pelvis_tilt	     pelvis_rotation	           pelvis_tx	           pelvis_ty	           pelvis_tz	       hip_flexion_r	     hip_adduction_r	      hip_rotation_r	        knee_angle_r	       ankle_angle_r	    subtalar_angle_r	         mtp_angle_r	       hip_flexion_l	     hip_adduction_l	      hip_rotation_l	        knee_angle_l	       ankle_angle_l	    subtalar_angle_l	         mtp_angle_l	    lumbar_extension	      lumbar_bending	     lumbar_rotation	          arm_flex_r	           arm_add_r	           arm_rot_r	        elbow_flex_r	           pro_sup_r	        wrist_flex_r	         wrist_dev_r	          arm_flex_l	           arm_add_l	           arm_rot_l	        elbow_flex_l	           pro_sup_l	        wrist_flex_l	         wrist_dev_l	          end_eff_tx	          end_eff_ty	          end_eff_tz	             goal_tx	             goal_ty	             goal_tz	            elbow_tx	            elbow_ty	            elbow_tz	
          2.51000000	          0.00000000	          0.00000000	        325.56194298	        494.37638988	        381.20177322	          0.00000000	          0.00000000	          0.00000000	          0.00000000	          0.00000000	          0.00000000	          0.00000000	          0.00000000	          0.00000000	          0.00000000	          0.00000000	          0.00000000	          0.00000000	          0.00000000	         -5.06941891	          6.84135342	         -5.61020517	         13.71482658	        -31.20632935	         12.07030106	         64.69431305	         93.86942291	          0.00000000	          0.00000000	          0.00000000	          0.00000000	          0.00000000	          0.00000000	          0.00000000	          0.00000000	          0.00000000	        606.31492752	        250.67004813	        590.36252213	        632.58537794	        255.13659855	        563.57591380	        205.48946672	        299.75993425	        675.82300312	
          2.52000000	          0.00000000	          0.00000000	        325.48056814	        494.39309844	        381.15010902	          0.00000000	          0.00000000	          0.00000000	          0.00000000	          0.00000000	          0.00000000	          0.00000000	          0.00000000	          0.00000000	          0.00000000	          0.00000000	          0.00000000	          0.00000000	          0.00000000	         -5.09617376	          6.86602926	         -5.62098789	         13.83330345	        -31.18832397	         12.04977131	         64.82747650	         93.85774994	          0.00000000	          0.00000000	          0.00000000	          0.00000000	          0.00000000	          0.00000000	          0.00000000	          0.00000000	          0.00000000	        606.87512884	        252.38070216	        590.36048008	        633.23099795	        256.99344469	        563.52993169	        205.80366873	        299.83195942	        675.85607017	
          2.53000000	          0.00000000	          0.00000000	        325.42993692	        494.39030016	        381.12149006	          0.00000000	          0.00000000	          0.00000000	          0.00000000	          0.00000000	          0.00000000	          0.00000000	          0.00000000	          0.00000000	          0.00000000	          0.00000000	          0.00000000	          0.00000000	          0.00000000	         -5.06047583	          6.85073423	         -5.61262369	         13.89252472	        -31.21139717	         11.98851871	         64.94768524	         93.89409637	          0.00000000	          0.00000000	          0.00000000	          0.00000000	          0.00000000	          0.00000000	          0.00000000	          0.00000000	          0.00000000	        607.44637494	        254.18174533	        590.37412215	        633.79919597	        259.09049110	        563.41211483	        206.12506579	        299.88027804	        675.92402435	
          2.54000000	          0.00000000	          0.00000000	        325.37966267	        494.40883346	        381.08937284	          0.00000000	          0.00000000	          0.00000000	          0.00000000	          0.00000000	          0.00000000	          0.00000000	          0.00000000	          0.00000000	          0.00000000	          0.00000000	          0.00000000	          0.00000000	          0.00000000	         -5.04985380	          6.83402824	         -5.61037350	         13.96621609	        -31.17339325	         11.94176769	         65.13137054	         93.70537567	          0.00000000	          0.00000000	          0.00000000	          0.00000000	          0.00000000	          0.00000000	          0.00000000	          0.00000000	          0.00000000	        608.00484774	        256.06676901	        590.36118856	        634.37959823	        260.99177641	        563.24978715	        206.43805325	        299.95047424	        675.96195144	
          2.55000000	          0.00000000	          0.00000000	        325.33214672	        494.43730087	        381.04630347	          0.00000000	          0.00000000	          0.00000000	          0.00000000	          0.00000000	          0.00000000	          0.00000000	          0.00000000	          0.00000000	          0.00000000	          0.00000000	          0.00000000	          0.00000000	          0.00000000	         -5.08203697	          6.83776617	         -5.63023424	         14.08807278	        -31.14988327	         11.91514969	         65.35598755	         93.50930786	          0.00000000	          0.00000000	          0.00000000	          0.00000000	          0.00000000	          0.00000000	          0.00000000	          0.00000000	          0.00000000	        608.66972823	        258.04513146	        590.46403381	        634.99658657	        263.24684403	        563.07603133	        206.83574919	        299.97955760	        675.97615415	
          2.56000000	          0.00000000	          0.00000000	        325.26920767	        494.42968485	        381.03179583	          0.00000000	          0.00000000	          0.00000000	          0.00000000	          0.00000000	          0.00000000	          0.00000000	          0.00000000	          0.00000000	          0.00000000	          0.00000000	          0.00000000	          0.00000000	          0.00000000	         -5.11855841	          6.81433821	         -5.60567141	         14.21258545	        -31.13205338	         11.84062099	         65.57132721	         93.34215546	          0.00000000	          0.00000000	          0.00000000	          0.00000000	          0.00000000	          0.00000000	          0.00000000	          0.00000000	          0.00000000	        609.27019261	        260.28751652	        590.40056616	        635.58155863	        265.35177267	        562.91523269	        207.19995292	        300.00903120	        676.00007320	
          2.57000000	          0.00000000	          0.00000000	        325.20483307	        494.44199407	        380.99806328	          0.00000000	          0.00000000	          0.00000000	          0.00000000	          0.00000000	          0.00000000	          0.00000000	          0.00000000	          0.00000000	          0.00000000	          0.00000000	          0.00000000	          0.00000000	          0.00000000	         -5.10972548	          6.81910181	         -5.61538982	         14.30478287	        -31.11617661	         11.80385494	         65.77205658	         93.16907501	          0.00000000	          0.00000000	          0.00000000	          0.00000000	          0.00000000	          0.00000000	          0.00000000	          0.00000000	          0.00000000	        609.90185154	        262.30466947	        590.40106398	        636.19033137	        267.64526318	        562.69723888	        207.56998837	        300.22001374	        676.07782752	
          2.58000000	          0.00000000	          0.00000000	        325.15208196	        494.47914134	        380.97904601	          0.00000000	          0.00000000	          0.00000000	          0.00000000	          0.00000000	          0.00000000	          0.00000000	          0.00000000	          0.00000000	          0.00000000	          0.00000000	          0.00000000	          0.00000000	          0.00000000	         -5.06682587	          6.79129314	         -5.62017584	         14.37369251	        -31.08411598	         11.77164173	         65.94287872	         92.97878265	          0.00000000	          0.00000000	          0.00000000	          0.00000000	          0.00000000	          0.00000000	          0.00000000	          0.00000000	          0.00000000	        610.52582941	        264.56077975	        590.31566996	        636.75275099	        269.87652675	        562.41984906	        207.98057220	        300.31340513	        676.16790541	
